<?xml version="1.0" standalone="no"?><!DOCTYPE svg PUBLIC "-//W3C//DTD SVG 1.1//EN" "http://www.w3.org/Graphics/SVG/1.1/DTD/svg11.dtd"><svg class="icon" width="200px" height="200.00px" viewBox="0 0 1024 1024" version="1.1" xmlns="http://www.w3.org/2000/svg"><path d="M958.528869 414.823773c-24.347524-30.705326-60.788481-48.312332-99.981109-48.312332L635.421984 366.511441c12.181437-33.971719 20.243043-70.897723 23.11444-106.626459 4.458545-55.556317-4.078899-104.904235-24.702612-142.705166-25.364691-46.499034-68.557422-75.505671-124.906801-83.879386-25.53149-3.791349-47.484478 1.110287-65.265446 14.58109-35.935444 27.224038-42.529629 79.035054-50.17168 139.022287-6.104021 47.956222-13.026688 102.311177-36.286438 141.273561-15.518438 26.003234-45.733601 60.568471-128.560004 60.568471l-86.434581 0c-57.558927 0-104.387465 46.810119-104.387465 104.347556l0 394.498866c0 57.535391 46.827515 104.347556 104.387465 104.347556l629.703749 0c28.667923 0 56.81703-9.806343 79.275531-27.609825 22.464641-17.808598 38.427194-42.982954 44.958958-70.886467l86.635149-370.360096C991.700363 484.962204 982.862068 445.499423 958.528869 414.823773L958.528869 414.823773zM107.401102 887.59226 107.401102 493.093395c0-19.167548 15.611559-34.767851 34.80776-34.767851l73.337285 0 0 464.039685-73.337285 0C123.012661 922.365228 107.401102 906.764925 107.401102 887.59226L107.401102 887.59226zM915.031193 507.23651l-86.635149 370.360096c-6.163373 26.355251-29.392424 44.768623-56.483432 44.768623L285.126876 922.365228 285.126876 453.280644c58.778708-11.221576 102.994746-41.155329 131.817188-89.437985 30.705326-51.43137 38.59911-113.439632 45.568848-168.145581 3.14769-24.720008 6.116301-48.070832 10.840906-65.983807 5.064342-19.213597 10.305717-24.840758 12.325723-26.371624 2.308579-1.749854 6.692423-2.158153 13.016455-1.219781 34.905998 5.184069 59.130725 21.013593 74.057693 48.381917 30.629601 56.143695 17.101493 150.903895-12.095479 215.489866-6.991228 15.473413-5.691629 33.196053 3.486404 47.413869 9.166777 14.207583 24.76094 22.683628 41.712007 22.683628L858.547761 436.091146c17.827017 0 34.393321 8.003278 45.465494 21.964244C915.067009 471.992821 919.082462 489.923192 915.031193 507.23651L915.031193 507.23651zM915.031193 507.23651" fill="#9B9B9B" /></svg>