<?xml version="1.0" standalone="no"?><!DOCTYPE svg PUBLIC "-//W3C//DTD SVG 1.1//EN" "http://www.w3.org/Graphics/SVG/1.1/DTD/svg11.dtd"><svg class="icon" width="200px" height="200.00px" viewBox="0 0 1024 1024" version="1.1" xmlns="http://www.w3.org/2000/svg"><path d="M868.456 274.191H748.222l-51.655-124.345c-11.995-28.879-39.955-47.541-71.227-47.541H401.989c-31.272 0-59.231 18.661-71.227 47.541l-51.653 124.345H158.873c-66.83 0-121.203 54.371-121.203 121.203v403.275c0 66.83 54.371 121.203 121.203 121.203h709.585c66.83 0 121.203-54.371 121.203-121.203V395.394c0-66.831-54.371-121.203-121.203-121.203z m77.13 524.475c0 42.528-34.6 77.129-77.129 77.129H158.872c-42.53 0-77.129-34.6-77.129-77.129V395.393c0-42.528 34.599-77.129 77.129-77.129h134.943a22.036 22.036 0 0 0 20.351-13.583l57.297-137.929a32.962 32.962 0 0 1 30.526-20.374H625.34a32.954 32.954 0 0 1 30.524 20.376l57.299 137.929a22.04 22.04 0 0 0 20.352 13.582h134.943c42.528 0 77.129 34.6 77.129 77.129v403.273z" fill="#FAFAFA" /><path d="M513.664 339.207c-123.437 0-223.863 100.423-223.863 223.863s100.423 223.863 223.863 223.863S737.527 686.51 737.527 563.07 637.104 339.207 513.664 339.207z m0 403.651c-99.136 0-179.789-80.654-179.789-179.789S414.528 383.28 513.664 383.28c99.135 0 179.789 80.654 179.789 179.789S612.8 742.858 513.664 742.858z" fill="#FAFAFA" /><path d="M452.585 653.691c-30.177-20.386-48.192-54.264-48.192-90.622 0-12.169-9.866-22.037-22.037-22.037s-22.037 9.867-22.037 22.037c0 51.017 25.268 98.547 67.592 127.142a21.936 21.936 0 0 0 12.317 3.779c7.073 0 14.023-3.4 18.279-9.703 6.813-10.084 4.161-23.781-5.923-30.595zM247.474 372.514H154.92c-12.17 0-22.037 9.866-22.037 22.037s9.866 22.037 22.037 22.037h92.554c12.17 0 22.037-9.866 22.037-22.037s-9.866-22.037-22.037-22.037z" fill="#FAFAFA" /></svg>