<?xml version="1.0" encoding="utf-8"?>
<!-- Generator: Adobe Illustrator 19.0.0, SVG Export Plug-In . SVG Version: 6.00 Build 0)  -->
<svg version="1.1" id="图层_1" xmlns="http://www.w3.org/2000/svg" xmlns:xlink="http://www.w3.org/1999/xlink" x="0px" y="0px"
	 viewBox="-3383 2781 200 200" style="enable-background:new -3383 2781 200 200;" xml:space="preserve">
<style type="text/css">
	.st0{fill:#9B9B9B;}
</style>
<path class="st0" d="M-3195.8,2900c4.8-6,6.5-13.7,4.7-21.1l-16.9-72.3c-1.3-5.4-4.4-10.4-8.8-13.8c-4.4-3.5-9.9-5.4-15.5-5.4h-123
	c-11.2,0-20.4,9.1-20.4,20.4v77.1c0,11.2,9.1,20.4,20.4,20.4h16.9c16.2,0,22.1,6.8,25.1,11.8c4.5,7.6,5.9,18.2,7.1,27.6
	c1.5,11.7,2.8,21.8,9.8,27.2c3.5,2.6,7.8,3.6,12.7,2.8c11-1.6,19.4-7.3,24.4-16.4c4-7.4,5.7-17,4.8-27.9c-0.6-7-2.1-14.2-4.5-20.8
	h43.6C-3207.7,2909.4-3200.5,2906-3195.8,2900L-3195.8,2900z M-3362,2807.6c0-3.7,3-6.8,6.8-6.8h14.3v90.6h-14.3
	c-3.7,0-6.8-3-6.8-6.8V2807.6L-3362,2807.6z M-3204.3,2881.9c0.8,3.4,0,6.9-2.2,9.6c-2.2,2.7-5.4,4.3-8.9,4.3h-49.4
	c-3.3,0-6.4,1.7-8.1,4.4c-1.8,2.8-2,6.2-0.7,9.3c5.7,12.6,8.3,31.1,2.4,42.1c-2.9,5.3-7.6,8.4-14.5,9.4c-1.2,0.2-2.1,0.1-2.5-0.2
	c-0.4-0.3-1.4-1.4-2.4-5.2c-0.9-3.5-1.5-8.1-2.1-12.9c-1.4-10.7-2.9-22.8-8.9-32.8c-5.6-9.4-14.3-15.3-25.7-17.5v-91.6h95.1
	c5.3,0,9.8,3.6,11,8.7L-3204.3,2881.9L-3204.3,2881.9z"/>
</svg>
