<?xml version="1.0" encoding="utf-8"?>
<!-- Generator: Adobe Illustrator 19.0.0, SVG Export Plug-In . SVG Version: 6.00 Build 0)  -->
<svg version="1.1" id="图层_1" xmlns="http://www.w3.org/2000/svg" xmlns:xlink="http://www.w3.org/1999/xlink" x="0px" y="0px"
	 viewBox="70 -70 200 200" style="enable-background:new 70 -70 200 200;" xml:space="preserve">
<style type="text/css">
	.st0{fill:#323333;}
</style>
<path id="XMLID_170_" class="st0" d="M169-66c-52.5,0-95,42.5-95,95s42.5,95,95,95s95-42.5,95-95S221.5-66,169-66z M212.5,105.3
	c0,0-0.7,1-10.2,1.1l-16.5,0c0,0-4.8,1-4.6-2.2c0,0-0.5-2,1-2.4c0,0,0.8-0.4,1.5-0.2c0,0-3.3-2.7,0.4-8.5c0,0,0.4-1.6-0.3-3.6
	c0,0-1.5-5.2-2.3-6.4c0,0-0.8,0.3-1.4-0.8c0,0-0.3,1-2.1,0.5c0,0-1.3,1-2.3,0.1c0,0-1,0.1-1.6-0.4l-0.2-0.9l-0.8-0.4l0.3-0.8
	l-0.8-1.2l0.6-1.6l-0.9-0.6l0.9-1.1c0,0-0.2-0.9-0.5-2.3c-0.8-3.5-2.5-9.7-4.1-11.3c-1.7,1.6-3.3,7.8-4.1,11.3
	c-0.3,1.4-0.5,2.3-0.5,2.3l0.9,1.1l-0.9,0.6l0.6,1.6l-0.8,1.2l0.3,0.8l-0.8,0.5l-0.2,0.9c-0.6,0.5-1.6,0.4-1.6,0.4
	c-1,0.9-2.3-0.1-2.3-0.1c-1.7,0.5-2.1-0.5-2.1-0.5c-0.6,1.1-1.4,0.8-1.4,0.8c-0.8,1.2-2.3,6.4-2.3,6.4c-0.7,2.1-0.3,3.6-0.3,3.6
	c3.7,5.7,0.4,8.5,0.4,8.5c0.7-0.2,1.5,0.2,1.5,0.2c1.6,0.4,1,2.4,1,2.4c0.2,3.2-4.6,2.2-4.6,2.2l-16.5,0c-9.5,0-10.2-1.1-10.2-1.1
	c-1.6-3.5,0.9-4.1,0.9-4.1c0.2-3.6,2.6-3.7,2.6-3.7c2.4-1,2.8-0.5,2.8-0.5c1.2-1.8,3.3-0.9,3.3-0.9l3.9-2c-0.1-0.8,0.1-1.2,0.1-1.2
	c1.2-1.5,2.3-0.5,2.3-0.5c0.5-0.2,1.2-0.8,1.2-0.8c2.9-5.6,3.4-10.8,3.4-10.8c-2.6-1.6-3.1-0.1-3.1-0.1l-2.7-1.8
	c-0.1-0.1-0.1-0.2-0.1-0.2l0.1-1.9l-1.3,0l1.1-2.1l-0.6-0.9l1.3-1.6l-0.5-0.8c0.2,0,3.5-1.6,3.5-1.6c-2.4-0.8,0-4.6,0-4.6
	c3.7-6.1,5.1-12.4,5.1-12.4c-2.7-0.8-0.5-4.3-0.5-4.3c1.5-2.1,5.7-22.6,5.7-22.6c-10.2,3.9-11,14.9-11,14.9c1.2,0.3,1.8,1.4,1.8,1.4
	c1.3,2.5-0.2,6.3-0.2,6.3c-0.5-0.1-0.9,0.1-0.9,0.1c-1.1,0.5-0.3,1.4-0.3,1.4c0.4,0.9-1.2,2-1.2,2c-2.7,3.7-6.7,0-6.7,0
	c-5.1,0-6.1-4.3-6.1-4.3c-2.4-5,4.2-10.3,4.2-10.3c1.3-4.2,4.9-9.7,4.9-9.7c8-11.4,17.3-12.1,17.3-12.1l0.1-1.7c5.1-0.3,6-2.1,6-2.1
	l-5-2.5c-22,0.2-24.5-24-24.5-24c-0.3-17.9,10.5-23.3,10.5-23.3c4.5-19.3,26.1-19.4,26.1-19.4s21.7,0.1,26.2,19.3
	c0,0,10.8,5.4,10.5,23.3c0,0-2.4,24.2-24.5,24l-5,2.5c0,0,0.9,1.8,6,2l0.1,1.7c0,0,9.3,0.6,17.3,12c0,0,3.6,5.5,5,9.7
	c0,0,6.6,5.3,4.2,10.3c0,0-1,4.3-6.1,4.3c0,0-4,3.7-6.7,0c0,0-1.6-1.2-1.2-2c0,0,0.8-0.9-0.3-1.4c0,0-0.4-0.2-0.9-0.1
	c0,0-1.6-3.8-0.2-6.3c0,0,0.6-1.1,1.8-1.4c0,0-0.8-11-11.1-14.9c0,0,4.2,20.5,5.7,22.6c0,0,2.2,3.5-0.5,4.3c0,0,1.4,6.3,5.1,12.4
	c0,0,2.5,3.8,0.1,4.6c0,0,3.3,1.6,3.5,1.6l-0.5,0.8l1.4,1.6l-0.6,0.9l1.1,2.1l-1.3,0l0.1,1.9c0,0,0,0.1-0.1,0.2l-2.7,1.8
	c0,0-0.5-1.5-3.1,0.1c0,0,0.5,5.2,3.4,10.8c0,0,0.7,0.7,1.2,0.8c0,0,1.1-0.9,2.3,0.5c0,0,0.3,0.4,0.1,1.2l3.9,2c0,0,2.1-0.9,3.3,0.9
	c0,0,0.5-0.5,2.8,0.5c0,0,2.4,0,2.6,3.7C211.6,101.2,214.1,101.8,212.5,105.3z"/>
</svg>
