<?xml version="1.0" standalone="no"?><!DOCTYPE svg PUBLIC "-//W3C//DTD SVG 1.1//EN" "http://www.w3.org/Graphics/SVG/1.1/DTD/svg11.dtd"><svg class="icon" width="200px" height="200.00px" viewBox="0 0 1024 1024" version="1.1" xmlns="http://www.w3.org/2000/svg"><path d="M515.939 33.51c-264.266-2.156-480.295 210.273-482.441 474.538-2.166 264.266 210.274 480.233 474.541 482.44 264.265 2.156 480.232-210.274 482.46-474.538 2.211-264.265-210.294-480.232-474.56-482.44zM944.643 515.588c-1.976 238.884-197.297 431.031-436.244 429.053-238.949-1.974-431.084-197.287-429.109-436.232 2.040-238.884 197.276-431.028 436.244-429.053 238.949 1.975 431.084 197.286 429.109 436.232zM699.281 498.651l-260.677-215.488c-12.382-10.292-31.179-1.552-31.307 14.612l-0.297 426.771c-0.107 16.048 15.271 25.084 27.844 15.027l264.202-211.231c9.452-7.602 9.579-21.97 0.233-29.691z" fill="#D0D0D0" /></svg>