<?xml version="1.0" standalone="no"?><!DOCTYPE svg PUBLIC "-//W3C//DTD SVG 1.1//EN" "http://www.w3.org/Graphics/SVG/1.1/DTD/svg11.dtd"><svg class="icon" width="200px" height="200.00px" viewBox="0 0 1024 1024" version="1.1" xmlns="http://www.w3.org/2000/svg"><path d="M985.6 313.6c-25.6-64-64-115.2-108.8-160S774.4 70.4 716.8 44.8C646.4 12.8 582.4 0 512 0S377.6 12.8 313.6 38.4c-64 25.6-115.2 64-160 108.8C102.4 198.4 64 249.6 38.4 313.6 12.8 377.6 0 441.6 0 512s12.8 134.4 38.4 198.4c25.6 64 64 115.2 108.8 160s102.4 83.2 160 108.8c64 25.6 128 38.4 198.4 38.4s134.4-12.8 198.4-38.4c64-25.6 115.2-64 160-108.8s83.2-102.4 108.8-160c25.6-64 38.4-128 38.4-198.4s0-134.4-25.6-198.4zM505.6 179.2c121.6 0 224 96 224 217.6S633.6 614.4 505.6 614.4C384 614.4 281.6 512 281.6 396.8c0-121.6 102.4-217.6 224-217.6zM512 979.2c-140.8 0-262.4-57.6-352-153.6 38.4-108.8 140.8-192 268.8-192h166.4c121.6 0 230.4 83.2 268.8 192-89.6 96-211.2 153.6-352 153.6z" fill="#999999" /></svg>